<svg width="39" height="39" viewBox="0 0 39 39" fill="none" xmlns="http://www.w3.org/2000/svg">
<path fill-rule="evenodd" clip-rule="evenodd" d="M37.3242 10.9688C37.3242 5.8397 33.1604 1.67584 28.0312 1.67584H10.9688C5.83964 1.67584 1.67578 5.8397 1.67578 10.9688V28.0313C1.67578 33.1604 5.83964 37.3243 10.9688 37.3243H28.0312C33.1604 37.3243 37.3242 33.1604 37.3242 28.0313V10.9688ZM35.8008 10.9688V28.0313C35.8008 32.3195 32.3194 35.8008 28.0312 35.8008H10.9688C6.68058 35.8008 3.19922 32.3195 3.19922 28.0313V10.9688C3.19922 6.68064 6.68058 3.19928 10.9688 3.19928H28.0312C32.3194 3.19928 35.8008 6.68064 35.8008 10.9688Z" fill="#FF9900"/>
<path fill-rule="evenodd" clip-rule="evenodd" d="M19.5001 10.6641C14.6233 10.6641 10.6641 14.6233 10.6641 19.5001C10.6641 24.3769 14.6233 28.3362 19.5001 28.3362C24.3769 28.3362 28.3362 24.3769 28.3362 19.5001C28.3362 14.6233 24.3769 10.6641 19.5001 10.6641ZM19.5001 12.1877C23.5358 12.1877 26.8125 15.4644 26.8125 19.5001C26.8125 23.5358 23.5358 26.8125 19.5001 26.8125C15.4644 26.8125 12.1877 23.5358 12.1877 19.5001C12.1877 15.4644 15.4644 12.1877 19.5001 12.1877Z" fill="#FF9900"/>
<path fill-rule="evenodd" clip-rule="evenodd" d="M29.8593 6.55084C28.43 6.55084 27.2695 7.71127 27.2695 9.14066C27.2695 10.57 28.43 11.7305 29.8593 11.7305C31.2887 11.7305 32.4492 10.57 32.4492 9.14066C32.4492 7.71127 31.2887 6.55084 29.8593 6.55084ZM29.8593 8.07421C30.4479 8.07421 30.9258 8.55211 30.9258 9.14066C30.9258 9.72921 30.4479 10.2071 29.8593 10.2071C29.2708 10.2071 28.7929 9.72921 28.7929 9.14066C28.7929 8.55211 29.2708 8.07421 29.8593 8.07421Z" fill="#FF9900"/>
</svg>
