<svg width="22" height="23" viewBox="0 0 22 23" fill="none" xmlns="http://www.w3.org/2000/svg">
<path d="M11 0C6.5175 0 2.87067 3.81252 2.87067 8.49883C2.87067 13.0359 10.2817 22.4059 10.5972 22.8025C10.6967 22.9276 10.8443 23 11 23C11.1556 23 11.3032 22.9276 11.4028 22.8025C11.7183 22.4058 19.1293 13.0359 19.1293 8.49883C19.1293 3.81252 15.4825 0 11 0ZM11 21.5833C10.3428 20.7255 8.97752 18.8978 7.62644 16.8083C5.20057 13.0568 3.91829 10.1835 3.91829 8.49883C3.91829 4.41644 7.09516 1.09524 11 1.09524C14.9048 1.09524 18.0817 4.41644 18.0817 8.49883C18.0817 10.1834 16.7995 13.0568 14.3735 16.8083C13.0224 18.8978 11.6571 20.7255 11 21.5833Z" fill="white"/>
<path d="M13.6649 15.6222C13.4252 15.4529 13.0996 15.5189 12.9377 15.7695C12.2308 16.8634 11.4389 18.0099 10.5841 19.1771C10.4082 19.4173 10.4518 19.761 10.6815 19.9448C10.7765 20.0209 10.8885 20.0577 10.9996 20.0577C11.157 20.0577 11.3127 19.9837 11.4158 19.843C12.2833 18.6586 13.0873 17.4944 13.8057 16.3826C13.9677 16.132 13.9047 15.7915 13.6649 15.6222Z" fill="white"/>
<path d="M10.9999 4.19849C8.63156 4.19849 6.70471 6.21292 6.70471 8.68896C6.70471 11.165 8.63156 13.1794 10.9999 13.1794C13.3683 13.1794 15.2952 11.165 15.2952 8.68896C15.2952 6.21292 13.3683 4.19849 10.9999 4.19849ZM10.9999 12.0842C9.20922 12.0842 7.75233 10.5611 7.75233 8.68896C7.75233 6.81684 9.20922 5.29372 10.9999 5.29372C12.7907 5.29372 14.2476 6.81684 14.2476 8.68896C14.2476 10.5611 12.7907 12.0842 10.9999 12.0842Z" fill="white"/>
</svg>
