<svg width="172" height="49" viewBox="0 0 172 49" fill="none" xmlns="http://www.w3.org/2000/svg">
<path d="M43.0861 13.928H52.1821V15.008H43.0861V13.928ZM43.2301 21.896H53.5981V23H42.0061V6.2H53.2381V7.304H43.2301V21.896ZM60.5401 23L54.9001 10.472H56.1721L61.4521 22.328H60.8761L66.2041 10.472H67.4281L61.7641 23H60.5401ZM74.9083 27.752C73.7723 27.752 72.6923 27.576 71.6683 27.224C70.6443 26.872 69.8123 26.384 69.1723 25.76L69.8203 24.848C70.4443 25.424 71.1883 25.872 72.0523 26.192C72.9323 26.512 73.8763 26.672 74.8843 26.672C76.5643 26.672 77.7963 26.28 78.5803 25.496C79.3803 24.712 79.7803 23.48 79.7803 21.8V18.32L80.0203 16.448L79.8282 14.576V10.472H80.9803V21.656C80.9803 23.752 80.4683 25.288 79.4443 26.264C78.4363 27.256 76.9243 27.752 74.9083 27.752ZM74.5723 22.544C73.3883 22.544 72.3243 22.288 71.3803 21.776C70.4523 21.248 69.7083 20.528 69.1483 19.616C68.6043 18.688 68.3323 17.632 68.3323 16.448C68.3323 15.248 68.6043 14.192 69.1483 13.28C69.7083 12.368 70.4523 11.656 71.3803 11.144C72.3243 10.632 73.3883 10.376 74.5723 10.376C75.7083 10.376 76.7243 10.624 77.6203 11.12C78.5323 11.6 79.2523 12.296 79.7803 13.208C80.3083 14.104 80.5723 15.184 80.5723 16.448C80.5723 17.696 80.3083 18.776 79.7803 19.688C79.2523 20.6 78.5323 21.304 77.6203 21.8C76.7243 22.296 75.7083 22.544 74.5723 22.544ZM74.6683 21.464C75.6763 21.464 76.5643 21.256 77.3323 20.84C78.1003 20.408 78.7003 19.816 79.1323 19.064C79.5803 18.296 79.8043 17.424 79.8043 16.448C79.8043 15.456 79.5803 14.584 79.1323 13.832C78.7003 13.08 78.1003 12.496 77.3323 12.08C76.5643 11.664 75.6763 11.456 74.6683 11.456C73.6923 11.456 72.8123 11.664 72.0283 12.08C71.2603 12.496 70.6523 13.08 70.2043 13.832C69.7723 14.584 69.5563 15.456 69.5563 16.448C69.5563 17.424 69.7723 18.296 70.2043 19.064C70.6523 19.816 71.2603 20.408 72.0283 20.84C72.8123 21.256 73.6923 21.464 74.6683 21.464ZM91.1476 23.096C89.8836 23.096 88.7636 22.824 87.7876 22.28C86.8276 21.736 86.0676 20.984 85.5076 20.024C84.9636 19.064 84.6916 17.968 84.6916 16.736C84.6916 15.488 84.9476 14.392 85.4596 13.448C85.9876 12.488 86.7076 11.736 87.6196 11.192C88.5316 10.648 89.5556 10.376 90.6916 10.376C91.8276 10.376 92.8436 10.64 93.7396 11.168C94.6516 11.696 95.3636 12.44 95.8756 13.4C96.4036 14.344 96.6676 15.44 96.6676 16.688C96.6676 16.736 96.6596 16.792 96.6436 16.856C96.6436 16.904 96.6436 16.96 96.6436 17.024H85.5796V16.088H95.9956L95.5156 16.544C95.5316 15.568 95.3236 14.696 94.8916 13.928C94.4756 13.144 93.9076 12.536 93.1876 12.104C92.4676 11.656 91.6356 11.432 90.6916 11.432C89.7636 11.432 88.9316 11.656 88.1956 12.104C87.4756 12.536 86.9076 13.144 86.4916 13.928C86.0756 14.696 85.8676 15.576 85.8676 16.568V16.784C85.8676 17.808 86.0916 18.72 86.5396 19.52C87.0036 20.304 87.6356 20.92 88.4356 21.368C89.2356 21.8 90.1476 22.016 91.1716 22.016C91.9716 22.016 92.7156 21.872 93.4036 21.584C94.1076 21.296 94.6996 20.856 95.1796 20.264L95.8756 21.056C95.3316 21.728 94.6436 22.24 93.8116 22.592C92.9956 22.928 92.1076 23.096 91.1476 23.096ZM106.5 10.376C107.524 10.376 108.412 10.576 109.164 10.976C109.932 11.36 110.524 11.952 110.94 12.752C111.372 13.536 111.588 14.512 111.588 15.68V23H110.388V15.776C110.388 14.368 110.028 13.296 109.308 12.56C108.604 11.824 107.612 11.456 106.332 11.456C105.356 11.456 104.508 11.656 103.788 12.056C103.068 12.456 102.516 13.016 102.132 13.736C101.764 14.456 101.58 15.32 101.58 16.328V23H100.38V10.472H101.532V13.952L101.364 13.568C101.748 12.576 102.38 11.8 103.26 11.24C104.14 10.664 105.22 10.376 106.5 10.376ZM116.528 23V10.472H117.728V23H116.528ZM117.128 7.424C116.856 7.424 116.624 7.328 116.432 7.136C116.24 6.944 116.144 6.72 116.144 6.464C116.144 6.192 116.24 5.96 116.432 5.768C116.624 5.576 116.856 5.48 117.128 5.48C117.416 5.48 117.648 5.576 117.824 5.768C118.016 5.944 118.112 6.168 118.112 6.44C118.112 6.712 118.016 6.944 117.824 7.136C117.648 7.328 117.416 7.424 117.128 7.424ZM122.498 27.752C121.922 27.752 121.378 27.656 120.866 27.464C120.37 27.272 119.946 26.992 119.594 26.624L120.194 25.712C120.514 26.048 120.858 26.296 121.226 26.456C121.61 26.616 122.042 26.696 122.522 26.696C123.098 26.696 123.602 26.536 124.034 26.216C124.482 25.896 124.898 25.312 125.282 24.464L126.146 22.544L126.314 22.328L131.618 10.472H132.842L126.41 24.704C126.074 25.472 125.706 26.072 125.306 26.504C124.922 26.952 124.498 27.272 124.034 27.464C123.57 27.656 123.058 27.752 122.498 27.752ZM126.122 23.312L120.314 10.472H121.586L126.866 22.256L126.122 23.312Z" fill="#FF9900"/>
<path d="M36.5599 45.064C35.8239 45.064 35.1572 44.8933 34.5599 44.552C33.9732 44.2107 33.5039 43.7253 33.1519 43.096C32.8105 42.456 32.6399 41.6987 32.6399 40.824C32.6399 39.9493 32.8105 39.1973 33.1519 38.568C33.5039 37.928 33.9732 37.4373 34.5599 37.096C35.1572 36.7547 35.8239 36.584 36.5599 36.584C37.3492 36.584 38.0532 36.7653 38.6719 37.128C39.3012 37.48 39.7919 37.976 40.1439 38.616C40.5065 39.256 40.6879 39.992 40.6879 40.824C40.6879 41.656 40.5065 42.392 40.1439 43.032C39.7919 43.672 39.3012 44.1733 38.6719 44.536C38.0532 44.888 37.3492 45.064 36.5599 45.064ZM32.3679 48.104V36.648H33.1359V39.384L33.0079 40.84L33.1679 42.296V48.104H32.3679ZM36.5119 44.344C37.1519 44.344 37.7279 44.2 38.2399 43.912C38.7519 43.6133 39.1519 43.1973 39.4399 42.664C39.7385 42.1307 39.8879 41.5173 39.8879 40.824C39.8879 40.12 39.7385 39.5067 39.4399 38.984C39.1519 38.4507 38.7519 38.04 38.2399 37.752C37.7279 37.4533 37.1519 37.304 36.5119 37.304C35.8719 37.304 35.2959 37.4533 34.7839 37.752C34.2825 38.04 33.8825 38.4507 33.5839 38.984C33.2959 39.5067 33.1519 40.12 33.1519 40.824C33.1519 41.5173 33.2959 42.1307 33.5839 42.664C33.8825 43.1973 34.2825 43.6133 34.7839 43.912C35.2959 44.2 35.8719 44.344 36.5119 44.344ZM47.2448 36.584C47.9274 36.584 48.5194 36.7173 49.0208 36.984C49.5328 37.24 49.9274 37.6347 50.2048 38.168C50.4928 38.6907 50.6368 39.3413 50.6368 40.12V45H49.8368V40.184C49.8368 39.2453 49.5968 38.5307 49.1168 38.04C48.6474 37.5493 47.9861 37.304 47.1328 37.304C46.4821 37.304 45.9168 37.4373 45.4368 37.704C44.9568 37.9707 44.5888 38.344 44.3328 38.824C44.0874 39.304 43.9648 39.88 43.9648 40.552V45H43.1648V33.128H43.9648V38.968L43.8207 38.712C44.0768 38.0507 44.4981 37.5333 45.0848 37.16C45.6714 36.776 46.3914 36.584 47.2448 36.584ZM57.1944 45.064C56.3944 45.064 55.6797 44.8827 55.0504 44.52C54.4317 44.1573 53.9357 43.656 53.5624 43.016C53.1997 42.376 53.0184 41.6453 53.0184 40.824C53.0184 39.992 53.1997 39.2613 53.5624 38.632C53.9357 37.992 54.4317 37.4907 55.0504 37.128C55.6797 36.7653 56.3944 36.584 57.1944 36.584C57.9944 36.584 58.709 36.7653 59.3384 37.128C59.9677 37.4907 60.4637 37.992 60.8264 38.632C61.189 39.2613 61.3704 39.992 61.3704 40.824C61.3704 41.6453 61.189 42.376 60.8264 43.016C60.4637 43.656 59.9677 44.1573 59.3384 44.52C58.709 44.8827 57.9944 45.064 57.1944 45.064ZM57.1944 44.344C57.8344 44.344 58.4104 44.2 58.9224 43.912C59.4344 43.6133 59.8344 43.1973 60.1224 42.664C60.4104 42.1307 60.5544 41.5173 60.5544 40.824C60.5544 40.12 60.4104 39.5067 60.1224 38.984C59.8344 38.4507 59.4344 38.04 58.9224 37.752C58.4104 37.4533 57.8344 37.304 57.1944 37.304C56.5544 37.304 55.9784 37.4533 55.4664 37.752C54.965 38.04 54.565 38.4507 54.2664 38.984C53.9784 39.5067 53.8344 40.12 53.8344 40.824C53.8344 41.5173 53.9784 42.1307 54.2664 42.664C54.565 43.1973 54.965 43.6133 55.4664 43.912C55.9784 44.2 56.5544 44.344 57.1944 44.344ZM66.2843 45.064C65.5483 45.064 64.9829 44.8613 64.5883 44.456C64.2043 44.0507 64.0123 43.496 64.0123 42.792V34.824H64.8123V42.712C64.8123 43.2453 64.9456 43.656 65.2123 43.944C65.4789 44.232 65.8629 44.376 66.3643 44.376C66.8869 44.376 67.3189 44.2213 67.6603 43.912L67.9963 44.472C67.7829 44.6747 67.5216 44.824 67.2123 44.92C66.9136 45.016 66.6043 45.064 66.2843 45.064ZM62.4763 37.336V36.648H67.4683V37.336H62.4763ZM73.1944 45.064C72.3944 45.064 71.6797 44.8827 71.0504 44.52C70.4317 44.1573 69.9357 43.656 69.5624 43.016C69.1997 42.376 69.0184 41.6453 69.0184 40.824C69.0184 39.992 69.1997 39.2613 69.5624 38.632C69.9357 37.992 70.4317 37.4907 71.0504 37.128C71.6797 36.7653 72.3944 36.584 73.1944 36.584C73.9944 36.584 74.709 36.7653 75.3384 37.128C75.9677 37.4907 76.4637 37.992 76.8264 38.632C77.189 39.2613 77.3704 39.992 77.3704 40.824C77.3704 41.6453 77.189 42.376 76.8264 43.016C76.4637 43.656 75.9677 44.1573 75.3384 44.52C74.709 44.8827 73.9944 45.064 73.1944 45.064ZM73.1944 44.344C73.8344 44.344 74.4104 44.2 74.9224 43.912C75.4344 43.6133 75.8344 43.1973 76.1224 42.664C76.4104 42.1307 76.5544 41.5173 76.5544 40.824C76.5544 40.12 76.4104 39.5067 76.1224 38.984C75.8344 38.4507 75.4344 38.04 74.9224 37.752C74.4104 37.4533 73.8344 37.304 73.1944 37.304C72.5544 37.304 71.9784 37.4533 71.4664 37.752C70.965 38.04 70.565 38.4507 70.2664 38.984C69.9784 39.5067 69.8344 40.12 69.8344 40.824C69.8344 41.5173 69.9784 42.1307 70.2664 42.664C70.565 43.1973 70.965 43.6133 71.4664 43.912C71.9784 44.2 72.5544 44.344 73.1944 44.344ZM83.3243 48.168C82.5669 48.168 81.8469 48.0507 81.1643 47.816C80.4816 47.5813 79.9269 47.256 79.5003 46.84L79.9323 46.232C80.3483 46.616 80.8443 46.9147 81.4203 47.128C82.0069 47.3413 82.6363 47.448 83.3083 47.448C84.4283 47.448 85.2496 47.1867 85.7723 46.664C86.3056 46.1413 86.5723 45.32 86.5723 44.2V41.88L86.7323 40.632L86.6042 39.384V36.648H87.3723V44.104C87.3723 45.5013 87.0309 46.5253 86.3483 47.176C85.6763 47.8373 84.6683 48.168 83.3243 48.168ZM83.1003 44.696C82.3109 44.696 81.6016 44.5253 80.9723 44.184C80.3536 43.832 79.8576 43.352 79.4843 42.744C79.1216 42.1253 78.9403 41.4213 78.9403 40.632C78.9403 39.832 79.1216 39.128 79.4843 38.52C79.8576 37.912 80.3536 37.4373 80.9723 37.096C81.6016 36.7547 82.3109 36.584 83.1003 36.584C83.8576 36.584 84.5349 36.7493 85.1323 37.08C85.7403 37.4 86.2203 37.864 86.5723 38.472C86.9243 39.0693 87.1003 39.7893 87.1003 40.632C87.1003 41.464 86.9243 42.184 86.5723 42.792C86.2203 43.4 85.7403 43.8693 85.1323 44.2C84.5349 44.5307 83.8576 44.696 83.1003 44.696ZM83.1643 43.976C83.8363 43.976 84.4283 43.8373 84.9403 43.56C85.4523 43.272 85.8523 42.8773 86.1403 42.376C86.4389 41.864 86.5883 41.2827 86.5883 40.632C86.5883 39.9707 86.4389 39.3893 86.1403 38.888C85.8523 38.3867 85.4523 37.9973 84.9403 37.72C84.4283 37.4427 83.8363 37.304 83.1643 37.304C82.5136 37.304 81.9269 37.4427 81.4043 37.72C80.8923 37.9973 80.4869 38.3867 80.1883 38.888C79.9003 39.3893 79.7563 39.9707 79.7563 40.632C79.7563 41.2827 79.9003 41.864 80.1883 42.376C80.4869 42.8773 80.8923 43.272 81.4043 43.56C81.9269 43.8373 82.5136 43.976 83.1643 43.976ZM90.7585 45V36.648H91.5265V38.936L91.4465 38.68C91.6812 38.008 92.0758 37.4907 92.6305 37.128C93.1852 36.7653 93.8785 36.584 94.7105 36.584V37.368C94.6785 37.368 94.6465 37.368 94.6145 37.368C94.5825 37.3573 94.5505 37.352 94.5185 37.352C93.5905 37.352 92.8652 37.6453 92.3425 38.232C91.8198 38.808 91.5585 39.6133 91.5585 40.648V45H90.7585ZM101.554 45V43.096L101.522 42.808V39.672C101.522 38.8933 101.308 38.3013 100.882 37.896C100.466 37.4907 99.8524 37.288 99.0418 37.288C98.4658 37.288 97.9271 37.3893 97.4258 37.592C96.9351 37.784 96.5138 38.0347 96.1618 38.344L95.7618 37.768C96.1778 37.3947 96.6791 37.1067 97.2658 36.904C97.8524 36.6907 98.4658 36.584 99.1058 36.584C100.14 36.584 100.935 36.8453 101.49 37.368C102.044 37.8907 102.322 38.6693 102.322 39.704V45H101.554ZM98.5458 45.064C97.9271 45.064 97.3884 44.968 96.9298 44.776C96.4818 44.5733 96.1351 44.2907 95.8898 43.928C95.6551 43.5653 95.5378 43.1493 95.5378 42.68C95.5378 42.2533 95.6338 41.8693 95.8258 41.528C96.0284 41.176 96.3591 40.8933 96.8178 40.68C97.2764 40.456 97.8898 40.344 98.6578 40.344H101.73V40.968H98.6738C97.8098 40.968 97.2018 41.128 96.8498 41.448C96.5084 41.768 96.3378 42.168 96.3378 42.648C96.3378 43.1813 96.5404 43.608 96.9457 43.928C97.3511 44.248 97.9218 44.408 98.6578 44.408C99.3618 44.408 99.9538 44.248 100.434 43.928C100.924 43.608 101.287 43.144 101.522 42.536L101.746 43.08C101.522 43.688 101.138 44.1733 100.594 44.536C100.06 44.888 99.3778 45.064 98.5458 45.064ZM109.81 45.064C109.074 45.064 108.407 44.8933 107.81 44.552C107.223 44.2107 106.754 43.7253 106.402 43.096C106.061 42.456 105.89 41.6987 105.89 40.824C105.89 39.9493 106.061 39.1973 106.402 38.568C106.754 37.928 107.223 37.4373 107.81 37.096C108.407 36.7547 109.074 36.584 109.81 36.584C110.599 36.584 111.303 36.7653 111.922 37.128C112.551 37.48 113.042 37.976 113.394 38.616C113.757 39.256 113.938 39.992 113.938 40.824C113.938 41.656 113.757 42.392 113.394 43.032C113.042 43.672 112.551 44.1733 111.922 44.536C111.303 44.888 110.599 45.064 109.81 45.064ZM105.618 48.104V36.648H106.386V39.384L106.258 40.84L106.418 42.296V48.104H105.618ZM109.762 44.344C110.402 44.344 110.978 44.2 111.49 43.912C112.002 43.6133 112.402 43.1973 112.69 42.664C112.989 42.1307 113.138 41.5173 113.138 40.824C113.138 40.12 112.989 39.5067 112.69 38.984C112.402 38.4507 112.002 38.04 111.49 37.752C110.978 37.4533 110.402 37.304 109.762 37.304C109.122 37.304 108.546 37.4533 108.034 37.752C107.533 38.04 107.133 38.4507 106.834 38.984C106.546 39.5067 106.402 40.12 106.402 40.824C106.402 41.5173 106.546 42.1307 106.834 42.664C107.133 43.1973 107.533 43.6133 108.034 43.912C108.546 44.2 109.122 44.344 109.762 44.344ZM120.495 36.584C121.177 36.584 121.769 36.7173 122.271 36.984C122.783 37.24 123.177 37.6347 123.455 38.168C123.743 38.6907 123.887 39.3413 123.887 40.12V45H123.087V40.184C123.087 39.2453 122.847 38.5307 122.367 38.04C121.897 37.5493 121.236 37.304 120.383 37.304C119.732 37.304 119.167 37.4373 118.687 37.704C118.207 37.9707 117.839 38.344 117.583 38.824C117.337 39.304 117.215 39.88 117.215 40.552V45H116.415V33.128H117.215V38.968L117.071 38.712C117.327 38.0507 117.748 37.5333 118.335 37.16C118.921 36.776 119.641 36.584 120.495 36.584ZM130.572 45.064C129.73 45.064 128.983 44.8827 128.332 44.52C127.692 44.1573 127.186 43.656 126.812 43.016C126.45 42.376 126.268 41.6453 126.268 40.824C126.268 39.992 126.439 39.2613 126.78 38.632C127.132 37.992 127.612 37.4907 128.22 37.128C128.828 36.7653 129.511 36.584 130.268 36.584C131.026 36.584 131.703 36.76 132.3 37.112C132.908 37.464 133.383 37.96 133.724 38.6C134.076 39.2293 134.252 39.96 134.252 40.792C134.252 40.824 134.247 40.8613 134.236 40.904C134.236 40.936 134.236 40.9733 134.236 41.016H126.86V40.392H133.804L133.484 40.696C133.495 40.0453 133.356 39.464 133.068 38.952C132.791 38.4293 132.412 38.024 131.932 37.736C131.452 37.4373 130.898 37.288 130.268 37.288C129.65 37.288 129.095 37.4373 128.604 37.736C128.124 38.024 127.746 38.4293 127.468 38.952C127.191 39.464 127.052 40.0507 127.052 40.712V40.856C127.052 41.5387 127.202 42.1467 127.5 42.68C127.81 43.2027 128.231 43.6133 128.764 43.912C129.298 44.2 129.906 44.344 130.588 44.344C131.122 44.344 131.618 44.248 132.076 44.056C132.546 43.864 132.94 43.5707 133.26 43.176L133.724 43.704C133.362 44.152 132.903 44.4933 132.348 44.728C131.804 44.952 131.212 45.064 130.572 45.064ZM136.727 45V36.648H137.495V38.936L137.415 38.68C137.65 38.008 138.045 37.4907 138.599 37.128C139.154 36.7653 139.847 36.584 140.679 36.584V37.368C140.647 37.368 140.615 37.368 140.583 37.368C140.551 37.3573 140.519 37.352 140.487 37.352C139.559 37.352 138.834 37.6453 138.311 38.232C137.789 38.808 137.527 39.6133 137.527 40.648V45H136.727Z" fill="#FF9900"/>
</svg>
