<svg width="109" height="43" viewBox="0 0 109 43" fill="none" xmlns="http://www.w3.org/2000/svg">
<path d="M10.7177 8.448H19.8137V9.528H10.7177V8.448ZM10.8617 16.416H21.2297V17.52H9.6377V0.72H20.8697V1.824H10.8617V16.416ZM28.1717 17.52L22.5317 4.992H23.8037L29.0837 16.848H28.5077L33.8357 4.992H35.0597L29.3957 17.52H28.1717ZM42.5399 22.272C41.4039 22.272 40.3239 22.096 39.2999 21.744C38.2759 21.392 37.4439 20.904 36.8039 20.28L37.4519 19.368C38.0759 19.944 38.8199 20.392 39.6839 20.712C40.5639 21.032 41.5079 21.192 42.5159 21.192C44.1959 21.192 45.4279 20.8 46.2119 20.016C47.0119 19.232 47.4119 18 47.4119 16.32V12.84L47.6519 10.968L47.4598 9.096V4.992H48.6119V16.176C48.6119 18.272 48.0999 19.808 47.0759 20.784C46.0679 21.776 44.5559 22.272 42.5399 22.272ZM42.2039 17.064C41.0199 17.064 39.9559 16.808 39.0119 16.296C38.0839 15.768 37.3399 15.048 36.7799 14.136C36.2359 13.208 35.9639 12.152 35.9639 10.968C35.9639 9.768 36.2359 8.712 36.7799 7.8C37.3399 6.888 38.0839 6.176 39.0119 5.664C39.9559 5.152 41.0199 4.896 42.2039 4.896C43.3399 4.896 44.3559 5.144 45.2519 5.64C46.1639 6.12 46.8839 6.816 47.4119 7.728C47.9399 8.624 48.2039 9.704 48.2039 10.968C48.2039 12.216 47.9399 13.296 47.4119 14.208C46.8839 15.12 46.1639 15.824 45.2519 16.32C44.3559 16.816 43.3399 17.064 42.2039 17.064ZM42.2999 15.984C43.3079 15.984 44.1959 15.776 44.9639 15.36C45.7319 14.928 46.3319 14.336 46.7639 13.584C47.2119 12.816 47.4359 11.944 47.4359 10.968C47.4359 9.976 47.2119 9.104 46.7639 8.352C46.3319 7.6 45.7319 7.016 44.9639 6.6C44.1959 6.184 43.3079 5.976 42.2999 5.976C41.3239 5.976 40.4439 6.184 39.6599 6.6C38.8919 7.016 38.2839 7.6 37.8359 8.352C37.4039 9.104 37.1879 9.976 37.1879 10.968C37.1879 11.944 37.4039 12.816 37.8359 13.584C38.2839 14.336 38.8919 14.928 39.6599 15.36C40.4439 15.776 41.3239 15.984 42.2999 15.984ZM58.7792 17.616C57.5152 17.616 56.3952 17.344 55.4192 16.8C54.4592 16.256 53.6992 15.504 53.1392 14.544C52.5952 13.584 52.3232 12.488 52.3232 11.256C52.3232 10.008 52.5792 8.912 53.0912 7.968C53.6192 7.008 54.3392 6.256 55.2512 5.712C56.1632 5.168 57.1872 4.896 58.3232 4.896C59.4592 4.896 60.4752 5.16 61.3712 5.688C62.2832 6.216 62.9952 6.96 63.5072 7.92C64.0352 8.864 64.2992 9.96 64.2992 11.208C64.2992 11.256 64.2912 11.312 64.2752 11.376C64.2752 11.424 64.2752 11.48 64.2752 11.544H53.2112V10.608H63.6272L63.1472 11.064C63.1632 10.088 62.9552 9.216 62.5232 8.448C62.1072 7.664 61.5392 7.056 60.8192 6.624C60.0992 6.176 59.2672 5.952 58.3232 5.952C57.3952 5.952 56.5632 6.176 55.8272 6.624C55.1072 7.056 54.5392 7.664 54.1232 8.448C53.7072 9.216 53.4992 10.096 53.4992 11.088V11.304C53.4992 12.328 53.7232 13.24 54.1712 14.04C54.6352 14.824 55.2672 15.44 56.0672 15.888C56.8672 16.32 57.7792 16.536 58.8032 16.536C59.6032 16.536 60.3472 16.392 61.0352 16.104C61.7392 15.816 62.3312 15.376 62.8112 14.784L63.5072 15.576C62.9632 16.248 62.2752 16.76 61.4432 17.112C60.6272 17.448 59.7392 17.616 58.7792 17.616ZM74.1316 4.896C75.1556 4.896 76.0436 5.096 76.7956 5.496C77.5636 5.88 78.1556 6.472 78.5716 7.272C79.0036 8.056 79.2196 9.032 79.2196 10.2V17.52H78.0196V10.296C78.0196 8.888 77.6596 7.816 76.9396 7.08C76.2356 6.344 75.2436 5.976 73.9636 5.976C72.9876 5.976 72.1396 6.176 71.4196 6.576C70.6996 6.976 70.1476 7.536 69.7636 8.256C69.3956 8.976 69.2116 9.84 69.2116 10.848V17.52H68.0116V4.992H69.1636V8.472L68.9956 8.088C69.3796 7.096 70.0116 6.32 70.8916 5.76C71.7716 5.184 72.8516 4.896 74.1316 4.896ZM84.1596 17.52V4.992H85.3596V17.52H84.1596ZM84.7596 1.944C84.4876 1.944 84.2556 1.848 84.0636 1.656C83.8716 1.464 83.7756 1.24 83.7756 0.984C83.7756 0.712 83.8716 0.48 84.0636 0.288C84.2556 0.0960001 84.4876 0 84.7596 0C85.0476 0 85.2796 0.0960001 85.4556 0.288C85.6476 0.464 85.7436 0.688 85.7436 0.96C85.7436 1.232 85.6476 1.464 85.4556 1.656C85.2796 1.848 85.0476 1.944 84.7596 1.944ZM90.1296 22.272C89.5536 22.272 89.0096 22.176 88.4976 21.984C88.0016 21.792 87.5776 21.512 87.2256 21.144L87.8256 20.232C88.1456 20.568 88.4896 20.816 88.8576 20.976C89.2416 21.136 89.6736 21.216 90.1536 21.216C90.7296 21.216 91.2336 21.056 91.6656 20.736C92.1136 20.416 92.5296 19.832 92.9136 18.984L93.7776 17.064L93.9456 16.848L99.2496 4.992H100.474L94.0416 19.224C93.7056 19.992 93.3376 20.592 92.9376 21.024C92.5536 21.472 92.1296 21.792 91.6656 21.984C91.2016 22.176 90.6896 22.272 90.1296 22.272ZM93.7536 17.832L87.9456 4.992H89.2176L94.4976 16.776L93.7536 17.832Z" fill="#FF9900"/>
<path d="M4.192 39.584C3.456 39.584 2.7893 39.4132 2.192 39.0719C1.6053 38.7306 1.136 38.2453 0.784 37.616C0.4426 36.976 0.271999 36.2187 0.271999 35.344C0.271999 34.4693 0.4426 33.7173 0.784 33.088C1.136 32.448 1.6053 31.9573 2.192 31.616C2.7893 31.2747 3.456 31.104 4.192 31.104C4.9813 31.104 5.6853 31.2852 6.304 31.6479C6.9333 31.9999 7.424 32.496 7.776 33.136C8.1386 33.776 8.32 34.512 8.32 35.344C8.32 36.176 8.1386 36.912 7.776 37.552C7.424 38.192 6.9333 38.6933 6.304 39.056C5.6853 39.408 4.9813 39.584 4.192 39.584ZM0 42.624V31.1679H0.767998V33.9039L0.639999 35.36L0.799999 36.816V42.624H0ZM4.144 38.864C4.784 38.864 5.36 38.7199 5.872 38.4319C6.384 38.1332 6.784 37.7173 7.072 37.184C7.3706 36.6507 7.52 36.0373 7.52 35.344C7.52 34.64 7.3706 34.0267 7.072 33.504C6.784 32.9707 6.384 32.5599 5.872 32.2719C5.36 31.9732 4.784 31.824 4.144 31.824C3.504 31.824 2.928 31.9732 2.416 32.2719C1.9146 32.5599 1.5146 32.9707 1.216 33.504C0.928 34.0267 0.784 34.64 0.784 35.344C0.784 36.0373 0.928 36.6507 1.216 37.184C1.5146 37.7173 1.9146 38.1332 2.416 38.4319C2.928 38.7199 3.504 38.864 4.144 38.864ZM14.8769 31.104C15.5595 31.104 16.1515 31.2373 16.6529 31.504C17.1649 31.76 17.5595 32.1547 17.8369 32.688C18.1249 33.2107 18.2689 33.8612 18.2689 34.6399V39.52H17.4689V34.7039C17.4689 33.7652 17.2289 33.0507 16.7489 32.56C16.2795 32.0693 15.6182 31.824 14.7649 31.824C14.1142 31.824 13.5489 31.9572 13.0689 32.2239C12.5889 32.4906 12.2209 32.864 11.9649 33.344C11.7195 33.824 11.5969 34.3999 11.5969 35.0719V39.52H10.7969V27.6479H11.5969V33.4879L11.4528 33.232C11.7089 32.5707 12.1302 32.0533 12.7169 31.68C13.3035 31.296 14.0235 31.104 14.8769 31.104ZM24.8265 39.584C24.0265 39.584 23.3118 39.4027 22.6825 39.04C22.0638 38.6773 21.5678 38.1759 21.1945 37.5359C20.8318 36.8959 20.6505 36.1653 20.6505 35.344C20.6505 34.512 20.8318 33.7813 21.1945 33.152C21.5678 32.512 22.0638 32.0106 22.6825 31.6479C23.3118 31.2852 24.0265 31.104 24.8265 31.104C25.6265 31.104 26.3411 31.2852 26.9705 31.6479C27.5998 32.0106 28.0958 32.512 28.4585 33.152C28.8211 33.7813 29.0025 34.512 29.0025 35.344C29.0025 36.1653 28.8211 36.8959 28.4585 37.5359C28.0958 38.1759 27.5998 38.6773 26.9705 39.04C26.3411 39.4027 25.6265 39.584 24.8265 39.584ZM24.8265 38.864C25.4665 38.864 26.0425 38.7199 26.5545 38.4319C27.0665 38.1332 27.4665 37.7173 27.7545 37.184C28.0425 36.6507 28.1865 36.0373 28.1865 35.344C28.1865 34.64 28.0425 34.0267 27.7545 33.504C27.4665 32.9707 27.0665 32.5599 26.5545 32.2719C26.0425 31.9732 25.4665 31.824 24.8265 31.824C24.1865 31.824 23.6105 31.9732 23.0985 32.2719C22.5971 32.5599 22.1971 32.9707 21.8985 33.504C21.6105 34.0267 21.4665 34.64 21.4665 35.344C21.4665 36.0373 21.6105 36.6507 21.8985 37.184C22.1971 37.7173 22.5971 38.1332 23.0985 38.4319C23.6105 38.7199 24.1865 38.864 24.8265 38.864ZM33.9164 39.584C33.1804 39.584 32.615 39.3813 32.2204 38.976C31.8364 38.5707 31.6444 38.016 31.6444 37.312V29.344H32.4444V37.232C32.4444 37.7653 32.5777 38.176 32.8444 38.464C33.111 38.752 33.495 38.896 33.9964 38.896C34.519 38.896 34.951 38.7412 35.2924 38.4319L35.6284 38.992C35.415 39.1947 35.1537 39.3439 34.8444 39.4399C34.5457 39.5359 34.2364 39.584 33.9164 39.584ZM30.1084 31.8559V31.1679H35.1004V31.8559H30.1084ZM40.8265 39.584C40.0265 39.584 39.3118 39.4027 38.6825 39.04C38.0638 38.6773 37.5678 38.1759 37.1945 37.5359C36.8318 36.8959 36.6505 36.1653 36.6505 35.344C36.6505 34.512 36.8318 33.7813 37.1945 33.152C37.5678 32.512 38.0638 32.0106 38.6825 31.6479C39.3118 31.2852 40.0265 31.104 40.8265 31.104C41.6265 31.104 42.3411 31.2852 42.9705 31.6479C43.5998 32.0106 44.0958 32.512 44.4585 33.152C44.8211 33.7813 45.0025 34.512 45.0025 35.344C45.0025 36.1653 44.8211 36.8959 44.4585 37.5359C44.0958 38.1759 43.5998 38.6773 42.9705 39.04C42.3411 39.4027 41.6265 39.584 40.8265 39.584ZM40.8265 38.864C41.4665 38.864 42.0425 38.7199 42.5545 38.4319C43.0665 38.1332 43.4665 37.7173 43.7545 37.184C44.0425 36.6507 44.1865 36.0373 44.1865 35.344C44.1865 34.64 44.0425 34.0267 43.7545 33.504C43.4665 32.9707 43.0665 32.5599 42.5545 32.2719C42.0425 31.9732 41.4665 31.824 40.8265 31.824C40.1865 31.824 39.6105 31.9732 39.0985 32.2719C38.5971 32.5599 38.1971 32.9707 37.8985 33.504C37.6105 34.0267 37.4665 34.64 37.4665 35.344C37.4665 36.0373 37.6105 36.6507 37.8985 37.184C38.1971 37.7173 38.5971 38.1332 39.0985 38.4319C39.6105 38.7199 40.1865 38.864 40.8265 38.864ZM50.9564 42.688C50.199 42.688 49.479 42.5707 48.7964 42.336C48.1137 42.1013 47.559 41.776 47.1324 41.36L47.5644 40.7519C47.9804 41.1359 48.4764 41.4346 49.0524 41.6479C49.639 41.8612 50.2684 41.968 50.9404 41.968C52.0604 41.968 52.8817 41.7067 53.4044 41.184C53.9377 40.6613 54.2044 39.84 54.2044 38.72V36.4L54.3644 35.152L54.2363 33.9039V31.1679H55.0044V38.624C55.0044 40.0213 54.663 41.0452 53.9804 41.6959C53.3084 42.3572 52.3004 42.688 50.9564 42.688ZM50.7324 39.216C49.943 39.216 49.2337 39.0452 48.6044 38.7039C47.9857 38.3519 47.4897 37.872 47.1164 37.264C46.7537 36.6453 46.5724 35.9413 46.5724 35.152C46.5724 34.352 46.7537 33.648 47.1164 33.04C47.4897 32.432 47.9857 31.9573 48.6044 31.616C49.2337 31.2747 49.943 31.104 50.7324 31.104C51.4897 31.104 52.167 31.2693 52.7644 31.6C53.3724 31.92 53.8524 32.384 54.2044 32.992C54.5564 33.5893 54.7324 34.3093 54.7324 35.152C54.7324 35.984 54.5564 36.704 54.2044 37.312C53.8524 37.92 53.3724 38.3893 52.7644 38.72C52.167 39.0507 51.4897 39.216 50.7324 39.216ZM50.7964 38.496C51.4684 38.496 52.0604 38.3573 52.5724 38.08C53.0844 37.792 53.4844 37.3973 53.7724 36.896C54.071 36.384 54.2204 35.8027 54.2204 35.152C54.2204 34.4907 54.071 33.9093 53.7724 33.408C53.4844 32.9067 53.0844 32.5173 52.5724 32.24C52.0604 31.9627 51.4684 31.824 50.7964 31.824C50.1457 31.824 49.559 31.9627 49.0364 32.24C48.5244 32.5173 48.119 32.9067 47.8204 33.408C47.5324 33.9093 47.3884 34.4907 47.3884 35.152C47.3884 35.8027 47.5324 36.384 47.8204 36.896C48.119 37.3973 48.5244 37.792 49.0364 38.08C49.559 38.3573 50.1457 38.496 50.7964 38.496ZM58.3906 39.52V31.1679H59.1586V33.456L59.0786 33.2C59.3133 32.528 59.7079 32.0106 60.2626 31.6479C60.8173 31.2852 61.5106 31.104 62.3426 31.104V31.888C62.3106 31.888 62.2786 31.888 62.2466 31.888C62.2146 31.8773 62.1826 31.872 62.1506 31.872C61.2226 31.872 60.4973 32.1652 59.9746 32.7519C59.4519 33.3279 59.1906 34.1332 59.1906 35.1679V39.52H58.3906ZM69.1861 39.52V37.616L69.1541 37.3279V34.192C69.1541 33.4133 68.9401 32.8213 68.5141 32.416C68.0981 32.0107 67.4845 31.8079 66.6739 31.8079C66.0979 31.8079 65.5592 31.9092 65.0579 32.1119C64.5672 32.3039 64.1459 32.5547 63.7939 32.864L63.3939 32.288C63.8099 31.9147 64.3112 31.6267 64.8979 31.424C65.4845 31.2107 66.0979 31.104 66.7379 31.104C67.7721 31.104 68.5671 31.3653 69.1221 31.888C69.6761 32.4107 69.9541 33.1892 69.9541 34.2239V39.52H69.1861ZM66.1779 39.584C65.5592 39.584 65.0205 39.488 64.5619 39.296C64.1139 39.0933 63.7672 38.8107 63.5219 38.448C63.2872 38.0853 63.1699 37.6693 63.1699 37.2C63.1699 36.7733 63.2659 36.3893 63.4579 36.048C63.6605 35.696 63.9912 35.4133 64.4499 35.2C64.9085 34.976 65.5219 34.864 66.2899 34.864H69.3621V35.4879H66.3059C65.4419 35.4879 64.8339 35.648 64.4819 35.968C64.1405 36.288 63.9699 36.6879 63.9699 37.1679C63.9699 37.7012 64.1725 38.128 64.5778 38.448C64.9832 38.768 65.5539 38.928 66.2899 38.928C66.9939 38.928 67.5859 38.768 68.0661 38.448C68.5561 38.128 68.9191 37.664 69.1541 37.056L69.3781 37.6C69.1541 38.208 68.7701 38.6933 68.2261 39.056C67.6921 39.408 67.0099 39.584 66.1779 39.584ZM77.4421 39.584C76.7061 39.584 76.0391 39.4132 75.4421 39.0719C74.8551 38.7306 74.3861 38.2453 74.0341 37.616C73.6931 36.976 73.5221 36.2187 73.5221 35.344C73.5221 34.4693 73.6931 33.7173 74.0341 33.088C74.3861 32.448 74.8551 31.9573 75.4421 31.616C76.0391 31.2747 76.7061 31.104 77.4421 31.104C78.2311 31.104 78.9351 31.2852 79.5541 31.6479C80.1831 31.9999 80.6741 32.496 81.0261 33.136C81.3891 33.776 81.5701 34.512 81.5701 35.344C81.5701 36.176 81.3891 36.912 81.0261 37.552C80.6741 38.192 80.1831 38.6933 79.5541 39.056C78.9351 39.408 78.2311 39.584 77.4421 39.584ZM73.2501 42.624V31.1679H74.0181V33.9039L73.8901 35.36L74.0501 36.816V42.624H73.2501ZM77.3941 38.864C78.0341 38.864 78.6101 38.7199 79.1221 38.4319C79.6341 38.1332 80.0341 37.7173 80.3221 37.184C80.6211 36.6507 80.7701 36.0373 80.7701 35.344C80.7701 34.64 80.6211 34.0267 80.3221 33.504C80.0341 32.9707 79.6341 32.5599 79.1221 32.2719C78.6101 31.9732 78.0341 31.824 77.3941 31.824C76.7541 31.824 76.1781 31.9732 75.6661 32.2719C75.1651 32.5599 74.7651 32.9707 74.4661 33.504C74.1781 34.0267 74.0341 34.64 74.0341 35.344C74.0341 36.0373 74.1781 36.6507 74.4661 37.184C74.7651 37.7173 75.1651 38.1332 75.6661 38.4319C76.1781 38.7199 76.7541 38.864 77.3941 38.864ZM88.1271 31.104C88.8091 31.104 89.4011 31.2373 89.9031 31.504C90.4151 31.76 90.8091 32.1547 91.0871 32.688C91.3751 33.2107 91.5191 33.8612 91.5191 34.6399V39.52H90.7191V34.7039C90.7191 33.7652 90.4791 33.0507 89.9991 32.56C89.5291 32.0693 88.8681 31.824 88.0151 31.824C87.3641 31.824 86.7991 31.9572 86.3191 32.2239C85.8391 32.4906 85.4711 32.864 85.2151 33.344C84.9691 33.824 84.8471 34.3999 84.8471 35.0719V39.52H84.0471V27.6479H84.8471V33.4879L84.7031 33.232C84.9591 32.5707 85.3801 32.0533 85.9671 31.68C86.5531 31.296 87.2731 31.104 88.1271 31.104ZM98.2041 39.584C97.3621 39.584 96.6151 39.4027 95.9641 39.04C95.3241 38.6773 94.8181 38.1759 94.4441 37.5359C94.0821 36.8959 93.9001 36.1653 93.9001 35.344C93.9001 34.512 94.0711 33.7813 94.4121 33.152C94.7641 32.512 95.2441 32.0106 95.8521 31.6479C96.4601 31.2852 97.1431 31.104 97.9001 31.104C98.6581 31.104 99.3351 31.28 99.9321 31.632C100.54 31.984 101.015 32.4799 101.356 33.1199C101.708 33.7492 101.884 34.48 101.884 35.312C101.884 35.344 101.879 35.3813 101.868 35.424C101.868 35.456 101.868 35.4932 101.868 35.5359H94.4921V34.9119H101.436L101.116 35.216C101.127 34.5653 100.988 33.984 100.7 33.472C100.423 32.9493 100.044 32.544 99.5641 32.256C99.0841 31.9573 98.5301 31.8079 97.9001 31.8079C97.2821 31.8079 96.7271 31.9573 96.2361 32.256C95.7561 32.544 95.3781 32.9493 95.1001 33.472C94.8231 33.984 94.6841 34.5707 94.6841 35.232V35.3759C94.6841 36.0586 94.8341 36.6667 95.1321 37.2C95.4421 37.7227 95.8631 38.1332 96.3961 38.4319C96.9301 38.7199 97.5381 38.864 98.2201 38.864C98.7541 38.864 99.2501 38.768 99.7081 38.576C100.178 38.384 100.572 38.0906 100.892 37.6959L101.356 38.2239C100.994 38.6719 100.535 39.0133 99.9801 39.248C99.4361 39.472 98.8441 39.584 98.2041 39.584ZM104.359 39.52V31.1679H105.127V33.456L105.047 33.2C105.282 32.528 105.677 32.0106 106.231 31.6479C106.786 31.2852 107.479 31.104 108.311 31.104V31.888C108.279 31.888 108.247 31.888 108.215 31.888C108.183 31.8773 108.151 31.872 108.119 31.872C107.191 31.872 106.466 32.1652 105.943 32.7519C105.421 33.3279 105.159 34.1332 105.159 35.1679V39.52H104.359Z" fill="#FF9900"/>
</svg>
